<svg xmlns="http://www.w3.org/2000/svg" viewBox="0 0 621.4 236" width="621.4" height="236" role="img" aria-label="obsey">
<path d="M137 120L137 120Q137 135.60 130.10 147.80Q123.20 160 111.50 167Q99.80 174 85.20 174L85.20 174Q70.60 174 58.80 167Q47 160 40.10 147.80Q33.20 135.60 33.20 120L33.20 120Q33.20 104.40 40.10 92.20Q47 80 58.80 73Q70.60 66 85.20 66L85.20 66Q99.80 66 111.50 73Q123.20 80 130.10 92.20Q137 104.40 137 120ZM121 120L121 120Q121 108.40 116.30 99.60Q111.60 90.80 103.50 85.80Q95.40 80.80 85.20 80.80L85.20 80.80Q75 80.80 66.90 85.80Q58.80 90.80 54 99.60Q49.20 108.40 49.20 120L49.20 120Q49.20 131.40 54 140.20Q58.80 149 66.90 154.10Q75 159.20 85.20 159.20L85.20 159.20Q95.40 159.20 103.50 154.10Q111.60 149 116.30 140.20Q121 131.40 121 120Z M213 66L213 66Q226.60 66 237.40 72.90Q248.20 79.80 254.50 91.80Q260.80 103.80 260.80 119.60Q260.80 135.40 254.50 147.60Q248.20 159.80 237.50 166.90Q226.80 174 213.40 174L213.40 174Q206 174 199.50 171.70Q193 169.40 187.70 165.50Q182.40 161.60 178.80 156.80L178.80 156.80Q178.40 156.40 178 155.80L178 155.80L178 164.80Q178 168.20 175.80 170.60Q173.60 173 170 173L170 173Q166.60 173 164.30 170.70Q162 168.40 162 164.80L162 164.80L162 32.20Q162 28.80 164.30 26.40Q166.60 24 170 24L170 24Q173.60 24 175.80 26.40Q178 28.80 178 32.20L178 32.20L178 85.40Q178.80 84 180 82.40L180 82.40Q183.40 77.80 188.50 74.10Q193.60 70.40 199.90 68.20Q206.20 66 213 66ZM211.20 80.80Q201.20 80.80 193.50 85.80Q185.80 90.80 181.50 99.60Q177.20 108.40 177.20 119.60Q177.20 130.80 181.50 139.80Q185.80 148.80 193.50 154Q201.20 159.20 211.20 159.20Q221.20 159.20 228.80 154Q236.40 148.80 240.80 139.80Q245.20 130.80 245.20 119.60Q245.20 108.40 240.80 99.60Q236.40 90.80 228.80 85.80Q221.20 80.80 211.20 80.80Z M280 155.60L280 155.60Q278.20 153 278.40 150.10Q278.60 147.20 281.80 145L281.80 145Q283.80 143.60 286.50 143.80Q289.20 144 291.40 146.40L291.40 146.40Q297 153 304.20 156.90Q311.40 160.80 321.80 160.80L321.80 160.80Q326.60 160.60 331.40 159.20Q336.20 157.80 339.50 154.30Q342.80 150.80 342.80 145L342.80 145Q342.80 139.40 339.40 136.10Q336 132.80 330.60 130.70Q325.20 128.60 318.80 127L318.80 127Q312.20 125.20 305.80 122.90Q299.40 120.60 294.30 117.10Q289.20 113.60 286.10 108.30Q283 103 283 95.40L283 95.40Q283 86.40 287.90 79.80Q292.80 73.20 301.10 69.60Q309.40 66 319.20 66L319.20 66Q324.80 66 330.90 67.30Q337 68.60 342.80 71.70Q348.60 74.80 353 80.20L353 80.20Q354.80 82.20 355 85.20Q355.20 88.20 352.40 90.60L352.40 90.60Q350.20 92.20 347.50 92Q344.80 91.80 343 90L343 90Q338.80 85 332.50 82.30Q326.20 79.60 318.60 79.60L318.60 79.60Q313.80 79.60 309.20 81Q304.60 82.40 301.50 85.70Q298.40 89 298.40 94.80L298.40 94.80Q298.60 100.20 302 103.60Q305.40 107 311.20 109.10Q317 111.20 324 113.20L324 113.20Q330.40 114.80 336.30 116.90Q342.20 119 347 122.40Q351.80 125.80 354.60 131.10Q357.40 136.40 357.40 144.40L357.40 144.40Q357.40 153.60 352.20 160.30Q347 167 338.50 170.50Q330 174 320.20 174L320.20 174Q309.20 174 298.50 169.80Q287.80 165.60 280 155.60Z M429.40 174L429.40 174Q413.40 174 401.40 167.20Q389.40 160.40 382.70 148.50Q376 136.60 376 121L376 121Q376 103.60 382.90 91.30Q389.80 79 400.90 72.50Q412 66 424.40 66L424.40 66Q433.60 66 442.20 69.40Q450.80 72.80 457.40 79.30Q464 85.80 468 94.90Q472 104 472.20 115.20L472.20 115.20Q472.20 118.40 469.80 120.60Q467.40 122.80 464.20 122.80L464.20 122.80L391.40 122.80Q392 132.60 396.20 140.20L396.20 140.20Q400.80 149 409.20 154.10Q417.60 159.20 428.80 159.20L428.80 159.20Q435.80 159.20 441 157.40Q446.20 155.60 450 152.90Q453.80 150.20 456.40 147.40L456.40 147.40Q459 145.60 461.40 145.60L461.40 145.60Q464.40 145.60 466.30 147.60Q468.20 149.60 468.20 152.40L468.20 152.40Q468.20 155.80 465 158.40L465 158.40Q459.40 164.60 449.80 169.30Q440.20 174 429.40 174ZM392.40 109L392.40 109L455.40 109L455.40 107.40Q454.60 99.20 449.90 93.30Q445.20 87.40 438.50 84.20Q431.80 81 424.40 81L424.40 81Q418.40 81 412.50 83.10Q406.60 85.20 401.90 89.90Q397.20 94.60 394.40 102L394.40 102Q393 105.20 392.40 109Z M574.60 67L574.60 67Q578 67 580.30 69.30Q582.60 71.60 582.60 75L582.60 75L582.60 162.20Q582.60 179 576 190.10Q569.40 201.20 558.30 206.60Q547.20 212 533.20 212L533.20 212Q525.40 212 518.20 210.40Q511 208.80 506.40 206.20L506.40 206.20Q502.60 204.40 501.10 201.70Q499.60 199 500.60 196L500.60 196Q502 192.40 504.70 191Q507.40 189.60 510.40 191L510.40 191Q513.60 192.40 519.70 194.90Q525.80 197.40 533.40 197.40L533.40 197.40Q543.80 197.40 551.20 193.40Q558.60 189.40 562.60 181.70Q566.60 174 566.60 162.60L566.60 162.60L566.60 157.40Q564 161.20 560.40 164.20L560.40 164.20Q555 168.80 548 171.40Q541 174 532.60 174L532.60 174Q521.20 174 513.30 169.10Q505.40 164.20 501.30 155.50Q497.20 146.80 497.20 135.40L497.20 135.40L497.20 75Q497.20 71.60 499.50 69.30Q501.80 67 505.20 67L505.20 67Q508.80 67 511 69.30Q513.20 71.60 513.20 75L513.20 75L513.20 131.80Q513.20 145.40 519.20 152.30Q525.20 159.20 537.80 159.20L537.80 159.20Q545.80 159.20 552.30 155.60Q558.80 152 562.70 145.70Q566.60 139.40 566.60 131.80L566.60 131.80L566.60 75Q566.60 71.60 568.80 69.30Q571 67 574.60 67Z" fill="#f5f7fa"></path>
<circle cx="85.1" cy="119" r="17" fill="#3B7FE0"></circle>
<circle cx="211.2" cy="119" r="17" fill="#3B7FE0"></circle>
</svg>